<?xml version="1.0" encoding="utf-8"?>
<!-- Generator: Adobe Illustrator 23.0.5, SVG Export Plug-In . SVG Version: 6.00 Build 0)  -->
<svg version="1.1" id="Layer_1" xmlns="http://www.w3.org/2000/svg" xmlns:xlink="http://www.w3.org/1999/xlink" x="0px" y="0px"
	 viewBox="0 0 111.3 22.2" style="enable-background:new 0 0 111.3 22.2;" xml:space="preserve">
<style type="text/css">
	.st0{fill:#145E97;}
	.st1{fill:#8F9090;}
	.st2{fill:#FFFFFF;}
</style>
<g>
	<rect x="5.3" y="2.9" class="st0" width="10" height="10"/>
	<rect y="8.2" class="st1" width="10" height="10"/>
	<rect x="5.3" y="8.2" class="st2" width="4.7" height="4.7"/>
	<path class="st0" d="M24.3,17.8c-1.3,0-2.4-0.3-3.3-0.8s-1.7-1.4-2.3-2.4c-0.5-1-0.8-2.3-0.8-3.7c0-1.5,0.3-2.7,0.8-3.8
		c0.6-1,1.3-1.8,2.3-2.4c1-0.6,2-0.8,3.2-0.8c1,0,2,0.2,2.8,0.6c0.8,0.4,1.5,0.9,2,1.6c0.4,0.5,0.7,1.2,0.9,1.8
		c0.1,0.2-0.1,0.5-0.3,0.5c0,0-0.1,0-0.1,0h-2.1c-0.2,0-0.3-0.1-0.4-0.3c-0.2-0.5-0.5-0.9-0.9-1.2c-0.5-0.4-1.1-0.5-1.8-0.5
		c-1,0-1.9,0.4-2.5,1.2c-0.6,0.8-1,1.9-1,3.3c0,1.4,0.3,2.5,1,3.3s1.5,1.2,2.6,1.2c0.9,0,1.7-0.2,2.2-0.7c0.4-0.4,0.7-0.9,0.8-1.5
		c0-0.3-0.2-0.5-0.4-0.5h-2c-0.2,0-0.4-0.2-0.4-0.4c0,0,0,0,0,0v-1.3c0-0.2,0.2-0.4,0.4-0.4c0,0,0,0,0,0h4.8c0.2,0,0.4,0.2,0.4,0.4
		c0,0,0,0,0,0v1.3c0,1.2-0.3,2.2-0.8,3.1c-0.5,0.8-1.2,1.5-2.1,2C26.4,17.6,25.4,17.8,24.3,17.8z"/>
	<path class="st0" d="M36.8,17.8c-1,0-1.9-0.2-2.7-0.7s-1.3-1.1-1.7-1.8c-0.4-0.8-0.6-1.7-0.6-2.7c0-1.1,0.2-2,0.6-2.8
		c0.4-0.8,1-1.4,1.7-1.8c0.8-0.4,1.6-0.7,2.7-0.7c1,0,1.9,0.2,2.7,0.7s1.3,1.1,1.7,1.8c0.4,0.8,0.6,1.7,0.6,2.8c0,1-0.2,2-0.6,2.7
		c-0.4,0.8-1,1.4-1.7,1.8C38.8,17.6,37.9,17.8,36.8,17.8z M34.7,12.6c0,0.9,0.2,1.6,0.5,2.2c0.4,0.6,0.9,0.9,1.6,0.9
		c0.7,0,1.2-0.3,1.6-0.9c0.4-0.6,0.5-1.3,0.5-2.2c0-0.9-0.2-1.6-0.5-2.2s-0.9-0.9-1.6-0.9c-0.7,0-1.2,0.3-1.6,0.9
		S34.7,11.7,34.7,12.6z"/>
	<path class="st0" d="M44.2,4.1H47c0.2,0,0.3,0.1,0.4,0.3l3.6,8.8h0.2l3.6-8.8c0.1-0.2,0.2-0.3,0.4-0.3H58c0.2,0,0.4,0.2,0.4,0.4
		c0,0,0,0,0,0v12.7c0,0.2-0.2,0.4-0.4,0.4c0,0,0,0,0,0h-1.9c-0.2,0-0.4-0.2-0.4-0.4c0,0,0,0,0,0V8.8h-0.1l-3.4,8.5
		c-0.1,0.2-0.2,0.3-0.4,0.3h-1.3c-0.2,0-0.3-0.1-0.4-0.3l-3.4-8.5h-0.1v8.4c0,0.2-0.2,0.4-0.4,0.4c0,0,0,0,0,0h-1.9
		c-0.2,0-0.4-0.2-0.4-0.4c0,0,0,0,0,0V4.5C43.7,4.3,43.9,4.1,44.2,4.1C44.2,4.1,44.2,4.1,44.2,4.1z"/>
	<path class="st0" d="M65.4,17.8c-1,0-1.9-0.2-2.7-0.6s-1.3-1-1.7-1.8c-0.4-0.8-0.6-1.7-0.6-2.8c0-1,0.2-2,0.6-2.8
		C61.4,9,62,8.4,62.7,8c0.7-0.4,1.6-0.7,2.6-0.7c0.9,0,1.7,0.2,2.4,0.6c0.7,0.4,1.3,1,1.7,1.7c0.4,0.8,0.6,1.7,0.6,2.9v0.3
		c0,0.2-0.2,0.4-0.4,0.4c0,0,0,0,0,0h-6c-0.3,0-0.5,0.2-0.4,0.5c0.1,0.5,0.3,1,0.6,1.3c0.4,0.4,1,0.7,1.6,0.7c0.5,0,0.9-0.1,1.2-0.3
		c0.3-0.2,0.5-0.4,0.6-0.6c0.1-0.1,0.2-0.2,0.4-0.2l1.8,0.1c0.3,0,0.5,0.3,0.4,0.6c-0.3,0.7-0.7,1.2-1.3,1.7
		C67.7,17.6,66.7,17.8,65.4,17.8z M63.7,11.5h3.2c0.2,0,0.4-0.2,0.4-0.4c0,0,0-0.1,0-0.1c-0.1-0.4-0.3-0.7-0.5-1
		c-0.3-0.4-0.8-0.6-1.5-0.6c-0.6,0-1.1,0.2-1.5,0.6c-0.2,0.3-0.4,0.6-0.5,0.9c-0.1,0.2,0.1,0.5,0.3,0.6
		C63.6,11.5,63.7,11.5,63.7,11.5L63.7,11.5z"/>
	<path class="st0" d="M77.4,7.9v1.2c0,0.2-0.2,0.4-0.4,0.4c0,0,0,0,0,0h-1c-0.2,0-0.4,0.2-0.4,0.4c0,0,0,0,0,0v4.5c0,0.7,0.3,1,1,1
		c0.1,0,0.2,0,0.4,0c0.1,0,0.2,0,0.3-0.1l0.4,1.7c0,0.2-0.1,0.5-0.3,0.5c-0.4,0.1-0.9,0.2-1.3,0.2c-1,0-1.8-0.3-2.3-0.8
		c-0.6-0.5-0.8-1.2-0.8-2.1V10c0-0.2-0.2-0.4-0.4-0.4c0,0,0,0,0,0h-0.5c-0.2,0-0.4-0.2-0.4-0.4c0,0,0,0,0,0V7.9
		c0-0.2,0.2-0.4,0.4-0.4c0,0,0,0,0,0h0.5c0.2,0,0.4-0.2,0.4-0.4c0,0,0,0,0,0V5.5C72.6,5.2,72.8,5,73,5c0,0,0,0,0,0H75
		c0.2,0,0.4,0.2,0.4,0.4c0,0,0,0,0,0V7c0,0.2,0.2,0.4,0.4,0.4c0,0,0,0,0,0h1C77.2,7.4,77.4,7.6,77.4,7.9C77.4,7.9,77.4,7.9,77.4,7.9
		z"/>
	<path class="st0" d="M79.2,17.2V7.9c0-0.2,0.2-0.4,0.4-0.4c0,0,0,0,0,0h1.9c0.2,0,0.4,0.2,0.4,0.4c0,0,0,0,0,0v1.3H82
		c0.2-0.6,0.5-1.1,0.9-1.4c0.4-0.3,0.9-0.5,1.5-0.5c0.2,0,0.3,0,0.5,0l0,0c0.2,0,0.4,0.2,0.4,0.4v1.6c0,0.2-0.2,0.4-0.4,0.4
		c0,0,0,0,0,0l-0.1,0c-0.2,0-0.4,0-0.6,0c-0.6,0-1.1,0.2-1.5,0.6c-0.4,0.4-0.6,0.9-0.6,1.5v5.3c0,0.2-0.2,0.4-0.4,0.4c0,0,0,0,0,0
		h-1.9C79.4,17.6,79.2,17.4,79.2,17.2z"/>
	<path class="st0" d="M88.2,6.1c-0.4,0-0.8-0.1-1.1-0.4c-0.3-0.3-0.5-0.6-0.5-1c0-0.4,0.2-0.7,0.5-1c0.6-0.6,1.5-0.6,2.2,0
		c0.3,0.3,0.5,0.6,0.5,1c0,0.4-0.2,0.7-0.5,1C89,6,88.6,6.2,88.2,6.1z M86.8,17.2V7.9c0-0.2,0.2-0.4,0.4-0.4c0,0,0,0,0,0h1.9
		c0.2,0,0.4,0.2,0.4,0.4c0,0,0,0,0,0v9.3c0,0.2-0.2,0.4-0.4,0.4c0,0,0,0,0,0h-1.9C87,17.6,86.8,17.4,86.8,17.2
		C86.8,17.2,86.8,17.2,86.8,17.2z"/>
	<path class="st0" d="M94.4,7.7l1.4,2.6c0.1,0.2,0.4,0.3,0.6,0.2c0.1,0,0.1-0.1,0.2-0.2l1.4-2.6c0.1-0.1,0.2-0.2,0.4-0.2h1.9
		c0.2,0,0.4,0.2,0.4,0.4c0,0.1,0,0.2-0.1,0.2l-2.4,4.2c-0.1,0.1-0.1,0.3,0,0.4l2.5,4.2c0.1,0.2,0.1,0.5-0.2,0.6
		c-0.1,0-0.1,0.1-0.2,0.1h-1.9c-0.2,0-0.3-0.1-0.4-0.2l-1.5-2.6c-0.1-0.2-0.4-0.3-0.6-0.2c-0.1,0-0.1,0.1-0.2,0.2l-1.5,2.6
		c-0.1,0.1-0.2,0.2-0.4,0.2H92c-0.2,0-0.4-0.2-0.4-0.4c0-0.1,0-0.2,0.1-0.2l2.5-4.2c0.1-0.1,0.1-0.3,0-0.4l-2.4-4.2
		c-0.1-0.2,0-0.5,0.2-0.6c0.1,0,0.1-0.1,0.2-0.1H94C94.2,7.5,94.3,7.5,94.4,7.7z"/>
	<path class="st0" d="M110.6,10.4l-1.7,0.1c-0.2,0-0.3-0.1-0.4-0.3c-0.1-0.2-0.3-0.4-0.4-0.6c-0.3-0.2-0.7-0.4-1.2-0.4
		c-0.4,0-0.8,0.1-1.1,0.3c-0.3,0.2-0.4,0.4-0.4,0.7c0,0.2,0.1,0.4,0.3,0.6c0.2,0.2,0.5,0.3,1,0.4l1.9,0.4c2,0.4,2.9,1.3,2.9,2.8
		c0,0.7-0.2,1.3-0.6,1.8c-0.4,0.5-0.9,0.9-1.6,1.2c-0.7,0.3-1.5,0.4-2.3,0.4c-1.3,0-2.4-0.3-3.2-0.8c-0.6-0.5-1.1-1-1.3-1.8
		c-0.1-0.3,0.1-0.5,0.4-0.6l1.9-0.1c0.2,0,0.4,0.1,0.4,0.3c0.3,0.6,0.8,1,1.8,1c0.5,0,0.9-0.1,1.2-0.3c0.3-0.2,0.5-0.4,0.5-0.7
		c0-0.5-0.4-0.8-1.3-1l-1.8-0.4c-2-0.4-2.9-1.4-2.9-2.9c0-1,0.4-1.8,1.2-2.3c0.8-0.6,1.8-0.8,3.1-0.8c1.3,0,2.3,0.3,3,0.8
		c0.6,0.4,1,1,1.2,1.7C111.1,10.1,110.9,10.3,110.6,10.4C110.6,10.4,110.6,10.4,110.6,10.4z"/>
</g>
</svg>
